<svg width="55" height="78" viewBox="0 0 55 78" fill="none" xmlns="http://www.w3.org/2000/svg">
<path d="M18.0746 17.9967L21.5144 21.1714C21.5247 21.1817 21.5247 21.1817 21.535 21.1817C21.5453 21.1817 21.5556 21.1817 21.5659 21.1817C21.5762 21.1817 21.5865 21.1714 21.5865 21.1714C21.5968 21.161 21.5968 21.161 21.6071 21.1507L27.0553 10.3692C27.0553 10.3589 27.0656 10.3589 27.0656 10.3589C27.0759 10.3589 27.0759 10.3486 27.0862 10.3486C27.0965 10.3486 27.0965 10.3486 27.1068 10.3589C27.1171 10.3589 27.1171 10.3692 27.1171 10.3692L39.898 35.6738C39.9186 35.7151 39.9495 35.7254 39.9804 35.7254H54.0899C54.1105 35.7254 54.1311 35.7151 54.1414 35.7048C54.1517 35.6945 54.162 35.6738 54.162 35.6532V4.50432C54.162 4.49402 54.162 4.48371 54.1517 4.48371C54.1517 4.4734 54.1414 4.4734 54.1311 4.46309C54.1208 4.46309 54.1105 4.46309 54.1105 4.46309C54.1002 4.46309 54.0899 4.46309 54.0899 4.4734L39.0432 18.3884C39.0226 18.409 39.0123 18.4296 39.002 18.4605C39.002 18.4914 39.002 18.5121 39.0123 18.543L41.1133 22.7072C41.1339 22.7484 41.1648 22.7587 41.1957 22.7278L49.4451 15.1106L49.4554 15.1003C49.4657 15.1003 49.4657 15.1003 49.476 15.1003L49.4863 15.1106C49.4863 15.1106 49.4863 15.1209 49.4863 15.1312V30.9943C49.4863 31.0252 49.4657 31.0458 49.4348 31.0458L42.8126 31.0664C42.792 31.0664 42.7714 31.0561 42.7508 31.0458C42.7302 31.0355 42.7199 31.0149 42.7096 31.0046L35.3871 16.4918L27.1171 0.0309221C27.0965 -0.0103074 27.0759 -0.0103074 27.0553 0.0309221L18.054 17.8524C18.0437 17.873 18.0437 17.9039 18.0437 17.9245C18.0437 17.9555 18.054 17.9761 18.0746 17.9967Z" fill="url(#paint0_linear_1161_10005)"/>
<path d="M0.0205978 35.6532C0.0205978 35.6635 0.0205978 35.6738 0.0308968 35.6841C0.0411957 35.6945 0.0411957 35.7048 0.0514946 35.7048C0.0617935 35.7151 0.0720925 35.7151 0.0720925 35.7254C0.0823914 35.7254 0.0926903 35.7357 0.102989 35.7357H14.1816C14.2022 35.7357 14.2331 35.7254 14.2537 35.7151C14.2743 35.7048 14.2949 35.6841 14.3052 35.6635L17.2095 29.912C17.2404 29.8399 17.2301 29.7883 17.1786 29.7368L13.7388 26.5621C13.7388 26.5621 13.7285 26.5518 13.7182 26.5518C13.7079 26.5518 13.7079 26.5518 13.6976 26.5518C13.6873 26.5518 13.6873 26.5518 13.677 26.5621L13.6667 26.5724L11.4215 31.0046C11.4112 31.0149 11.4009 31.0252 11.3906 31.0355C11.3803 31.0458 11.3597 31.0458 11.3494 31.0458H4.70661C4.67571 31.0458 4.65511 31.0252 4.65511 30.9943V15.1106L4.66541 15.1003H4.67571C4.67571 15.1003 4.68601 15.1003 4.68601 15.1106L27.0038 35.7254C27.045 35.7563 27.0759 35.7563 27.1171 35.7254L34.0276 29.3348C34.0379 29.3245 34.0482 29.3039 34.0482 29.2833C34.0482 29.2626 34.0482 29.242 34.0379 29.2317L31.9164 25.0263C31.9164 25.016 31.9061 25.016 31.9061 25.016C31.8958 25.016 31.8958 25.0057 31.8855 25.0057C31.8752 25.0057 31.8752 25.0057 31.8649 25.0057C31.8546 25.0057 31.8546 25.0057 31.8443 25.016L27.0862 29.4173C27.0759 29.4276 27.0553 29.4379 27.045 29.4379C27.0347 29.4379 27.0141 29.4276 27.0038 29.4173L0.0720925 4.48371C0.0617935 4.4734 0.0617935 4.4734 0.0514946 4.4734C0.0411957 4.4734 0.0308968 4.4734 0.0308968 4.4734C0.0205978 4.4734 0.0205979 4.48371 0.0102989 4.49402C0.0102989 4.50432 0 4.50432 0 4.51463L0.0205978 19.5016V35.6532Z" fill="url(#paint1_linear_1161_10005)"/>
<path d="M54.1931 38.0342H0.0828702C0.0520611 38.0342 0.0315218 38.0548 0.0315218 38.0858L2.32411 42.5901C2.32411 42.621 2.34465 42.6416 2.37546 42.6416H51.6308C51.6616 42.6416 51.6821 42.621 51.6821 42.5901L54.2444 38.0858C54.2444 38.0548 54.2239 38.0342 54.1931 38.0342Z" fill="url(#paint2_linear_1161_10005)"/>
<path d="M0.457031 61.7775V61.2492L0.834442 61.224C1.14056 61.2072 1.33137 61.1548 1.40685 61.0668C1.48652 60.9787 1.53265 60.681 1.54523 60.1736C1.57459 59.1378 1.58926 58.016 1.58926 56.8083C1.58926 56.1667 1.58507 55.4371 1.57668 54.6193C1.5683 54.1245 1.53894 53.8226 1.48862 53.7135C1.46346 53.659 1.41733 53.615 1.35024 53.5815C1.28314 53.5479 0.985406 53.5123 0.457031 53.4745V52.9461C0.964439 52.9587 1.46136 52.965 1.9478 52.965C2.51392 52.965 3.05907 52.9587 3.58325 52.9461C3.80969 53.4787 4.04453 54.0071 4.28775 54.5313C4.45968 54.9045 5.22079 56.4875 6.57108 59.2803C7.99685 56.412 8.99489 54.3006 9.5652 52.9461C10.0684 52.9671 10.5465 52.9776 10.9994 52.9776C11.5319 52.9776 12.0456 52.9671 12.5405 52.9461V53.4745C11.9911 53.5081 11.6808 53.5563 11.6095 53.6192C11.5382 53.6821 11.4921 53.875 11.4711 54.1979C11.4376 54.7263 11.4208 55.7306 11.4208 57.2109C11.4208 57.9573 11.4292 58.7457 11.446 59.576C11.4627 60.4063 11.4921 60.876 11.534 60.985C11.5634 61.0479 11.6053 61.0961 11.6598 61.1297C11.7143 61.1632 12.0079 61.203 12.5405 61.2492V61.7775C11.8611 61.744 11.2552 61.7272 10.7226 61.7272C10.1858 61.7272 9.45617 61.744 8.53362 61.7775V61.2492L8.90474 61.2366C9.19828 61.224 9.38069 61.1842 9.45198 61.1171C9.52746 61.0458 9.57569 60.8634 9.59665 60.5698C9.61762 60.2721 9.62811 59.5739 9.62811 58.4752V54.6759C8.98232 55.9717 8.1583 57.6701 7.15607 59.771C6.74511 60.6348 6.42431 61.3393 6.19367 61.8845H5.76594C5.45143 61.1632 5.02999 60.2511 4.50161 59.1483L2.32521 54.6759V55.5314C2.32521 57.8965 2.33779 59.5257 2.36295 60.4189C2.37553 60.7795 2.42376 61.0018 2.50763 61.0856C2.5915 61.1695 2.90391 61.224 3.44486 61.2492V61.7775C3.01713 61.744 2.5894 61.7272 2.16167 61.7272C1.52426 61.7272 0.956052 61.744 0.457031 61.7775Z" fill="white"/>
<path d="M15.6581 61.1989C16.0523 61.1779 16.2955 61.138 16.3878 61.0793C16.4507 61.0374 16.5492 60.8781 16.6834 60.6013C16.9392 60.0561 17.2663 59.2992 17.6647 58.3305L19.8914 52.877H20.8161L23.6592 59.6326C24.0282 60.509 24.2547 60.9892 24.3386 61.073C24.4266 61.1569 24.6929 61.2135 25.1374 61.2429V61.7713C24.4539 61.7419 23.8081 61.7272 23.2 61.7272C22.4746 61.7272 21.7847 61.7419 21.1306 61.7713V61.2429C21.6296 61.2219 21.9168 61.1947 21.9923 61.1611C22.072 61.1234 22.1118 61.0584 22.1118 60.9661C22.1118 60.8864 22.0238 60.6139 21.8477 60.1484L21.4325 59.0728C20.9125 59.0644 20.3317 59.0602 19.6901 59.0602C19.1324 59.0602 18.625 59.0644 18.1679 59.0728L17.8911 59.7961C17.8156 59.9932 17.7234 60.2868 17.6144 60.6768C17.5892 60.7648 17.5766 60.8445 17.5766 60.9158C17.5766 61.0122 17.6165 61.0814 17.6961 61.1234C17.78 61.1611 18.0756 61.2009 18.583 61.2429V61.7713C18.1721 61.7419 17.6605 61.7272 17.0482 61.7272C16.4654 61.7272 16.002 61.7419 15.6581 61.7713V61.1989ZM19.7845 55.1037L18.4572 58.3305C18.843 58.3515 19.2687 58.362 19.7342 58.362C20.2206 58.362 20.6861 58.3515 21.1306 58.3305L19.7845 55.1037Z" fill="white"/>
<path d="M28.0727 61.7713V61.2429C28.6052 61.2387 28.9155 61.1989 29.0036 61.1234C29.0707 61.073 29.1105 60.9242 29.1231 60.6768C29.1734 59.859 29.1986 58.9155 29.1986 57.8462C29.1986 57.0536 29.1881 56.2045 29.1672 55.2987C29.1462 54.3887 29.1105 53.8645 29.0602 53.7261C29.0351 53.6632 28.9994 53.6192 28.9533 53.594C28.882 53.5479 28.5885 53.5102 28.0727 53.4808V52.9524C28.8065 52.9734 29.4376 52.9839 29.966 52.9839C30.7376 52.9839 31.5469 52.9734 32.394 52.9524C32.9517 52.9357 33.4214 52.9273 33.803 52.9273C34.0756 52.9273 34.3356 52.9357 34.583 52.9524L34.6459 53.0845C34.5578 53.6171 34.5033 54.244 34.4823 54.9653H33.954L33.9037 54.2922C33.8911 54.0784 33.8617 53.9484 33.8156 53.9023C33.7737 53.8519 33.6185 53.8016 33.3501 53.7513C33.0859 53.701 32.7064 53.6758 32.2116 53.6758C31.8468 53.6758 31.461 53.6947 31.0542 53.7324C31.0081 54.4411 30.985 54.9422 30.985 55.2358L30.9976 56.5882L30.9913 56.8775C31.2429 56.8859 31.5469 56.8901 31.9034 56.8901C32.545 56.8901 32.9308 56.8754 33.0608 56.8461C33.1279 56.8293 33.1761 56.7957 33.2054 56.7454C33.2516 56.6573 33.2893 56.3953 33.3187 55.9591H33.8596C33.847 56.3282 33.8408 56.6951 33.8408 57.0599C33.8408 57.4038 33.847 57.951 33.8596 58.7017H33.3187C33.2851 58.1565 33.2453 57.8378 33.1992 57.7455C33.174 57.6952 33.1216 57.6596 33.0419 57.6386C32.8406 57.5841 32.4318 57.5568 31.8153 57.5568L30.9913 57.5694L31.0165 59.9848C31.0332 60.5677 31.0626 60.9053 31.1045 60.9976C31.1339 61.0563 31.1779 61.1003 31.2366 61.1297C31.3205 61.1716 31.6706 61.2093 32.2871 61.2429V61.7713C31.6161 61.7419 30.9871 61.7272 30.4 61.7272C29.88 61.7272 29.1042 61.7419 28.0727 61.7713Z" fill="white"/>
<path d="M37.5497 61.7713V61.2429C38.1284 61.2135 38.4555 61.1653 38.531 61.0982C38.6064 61.0311 38.6526 60.8655 38.6693 60.6013C38.6987 60.0478 38.7134 59.0162 38.7134 57.5065C38.7134 56.9278 38.705 56.0891 38.6882 54.9905C38.6798 54.2398 38.663 53.8289 38.6379 53.7576C38.6127 53.6821 38.5687 53.6276 38.5058 53.594C38.4135 53.5479 38.0948 53.5081 37.5497 53.4745V52.9461C38.4135 52.9797 39.074 52.9965 39.5311 52.9965C40.3195 52.9965 41.0323 52.9797 41.6698 52.9461V53.4745C41.0994 53.5081 40.7765 53.5542 40.7011 53.6129C40.6298 53.6674 40.5836 53.7974 40.5627 54.0029C40.5249 54.4055 40.5061 55.2211 40.5061 56.4498C40.5061 58.0852 40.5124 59.2258 40.5249 59.8716C40.5375 60.5132 40.5753 60.8948 40.6382 61.0164C40.6633 61.071 40.7157 61.115 40.7954 61.1485C40.8793 61.1779 41.1707 61.2093 41.6698 61.2429V61.7713L40.9275 61.7524C40.4578 61.7356 40.0385 61.7272 39.6695 61.7272L37.5497 61.7713Z" fill="white"/>
<path d="M44.8314 61.1989C45.2256 61.1779 45.4688 61.138 45.5611 61.0793C45.624 61.0374 45.7226 60.8781 45.8567 60.6013C46.1125 60.0561 46.4396 59.2992 46.838 58.3305L49.0647 52.877H49.9894L52.8326 59.6326C53.2016 60.509 53.428 60.9892 53.5119 61.073C53.5999 61.1569 53.8662 61.2135 54.3107 61.2429V61.7713C53.6272 61.7419 52.9814 61.7272 52.3734 61.7272C51.6479 61.7272 50.9581 61.7419 50.3039 61.7713V61.2429C50.8029 61.2219 51.0902 61.1947 51.1657 61.1611C51.2453 61.1234 51.2852 61.0584 51.2852 60.9661C51.2852 60.8864 51.1971 60.6139 51.021 60.1484L50.6058 59.0728C50.0858 59.0644 49.505 59.0602 48.8634 59.0602C48.3057 59.0602 47.7983 59.0644 47.3412 59.0728L47.0645 59.7961C46.989 59.9932 46.8967 60.2868 46.7877 60.6768C46.7625 60.7648 46.75 60.8445 46.75 60.9158C46.75 61.0122 46.7898 61.0814 46.8695 61.1234C46.9533 61.1611 47.249 61.2009 47.7564 61.2429V61.7713C47.3454 61.7419 46.8338 61.7272 46.2216 61.7272C45.6387 61.7272 45.1753 61.7419 44.8314 61.7713V61.1989ZM48.9578 55.1037L47.6306 58.3305C48.0164 58.3515 48.442 58.362 48.9075 58.362C49.3939 58.362 49.8594 58.3515 50.3039 58.3305L48.9578 55.1037Z" fill="white"/>
<path d="M0.513643 77.8741V77.3457C1.00008 77.3038 1.27895 77.264 1.35024 77.2262C1.39636 77.2011 1.42991 77.1612 1.45088 77.1067C1.49281 77.0061 1.52217 76.6664 1.53894 76.0877C1.55991 75.1903 1.57039 74.4837 1.57039 73.9679C1.57039 73.2718 1.56201 72.387 1.54523 71.3135C1.52846 70.5125 1.48862 70.0219 1.42572 69.8416C1.40894 69.787 1.3754 69.7451 1.32508 69.7157C1.25798 69.6738 0.987503 69.6277 0.513643 69.5774V69.049C1.38169 69.0825 1.94151 69.0993 2.19312 69.0993L5.3445 69.0427C6.02803 69.0427 6.52495 69.1098 6.83527 69.244C7.14978 69.374 7.39719 69.5858 7.57751 69.8793C7.76202 70.1686 7.85428 70.5104 7.85428 70.9046C7.85428 71.4078 7.70751 71.8502 7.41396 72.2318C7.12462 72.6092 6.61931 72.9447 5.89803 73.2382L7.23784 75.2574L8.28201 76.8048C8.4791 77.0564 8.62587 77.2094 8.72232 77.264C8.81877 77.3143 8.97602 77.3415 9.19408 77.3457V77.8301L8.82296 77.8364C7.75783 77.8447 7.0722 77.8573 6.76608 77.8741C6.40125 77.2912 5.8561 76.4462 5.13063 75.3392L3.83486 73.3703C3.8726 73.299 3.90405 73.2236 3.92921 73.1439C4.09695 73.1649 4.22065 73.1753 4.30033 73.1753C4.69032 73.1753 5.07402 73.0181 5.45143 72.7036C5.82884 72.3891 6.01755 71.9404 6.01755 71.3575C6.01755 70.8501 5.86868 70.4559 5.57094 70.1749C5.27321 69.894 4.82661 69.7535 4.23114 69.7535C4.04243 69.7535 3.78663 69.7682 3.46373 69.7975L3.36309 74.0056C3.36309 74.5382 3.38406 75.2196 3.42599 76.05C3.45954 76.6748 3.49309 77.0249 3.52664 77.1004C3.5518 77.1549 3.59793 77.199 3.66502 77.2325C3.75308 77.2828 4.03824 77.3206 4.52048 77.3457V77.8741C3.76566 77.8447 3.09681 77.8301 2.51392 77.8301C1.89329 77.8301 1.22653 77.8447 0.513643 77.8741Z" fill="white"/>
<path d="M16.5926 77.9999C15.0452 77.9999 13.8606 77.6036 13.0386 76.8111C12.2167 76.0143 11.8058 74.9198 11.8058 73.5276C11.8058 72.5547 12.005 71.7286 12.4033 71.0493C12.8017 70.3657 13.3531 69.8416 14.0576 69.4767C14.7663 69.1119 15.6763 68.9295 16.7876 68.9295C17.8569 68.9295 18.7312 69.1056 19.4106 69.4578C20.0899 69.8059 20.612 70.2923 20.9768 70.9172C21.3459 71.5378 21.5304 72.301 21.5304 73.2068C21.5304 74.1881 21.3291 75.0372 20.9265 75.7543C20.5239 76.4672 19.9557 77.0207 19.2219 77.4149C18.4922 77.8049 17.6158 77.9999 16.5926 77.9999ZM16.8316 77.3143C17.6745 77.3143 18.3454 77.004 18.8445 76.3833C19.3477 75.7585 19.5993 74.8108 19.5993 73.5402C19.5993 72.2067 19.312 71.1835 18.7375 70.4706C18.2721 69.8961 17.555 69.6088 16.5863 69.6088C15.6805 69.6088 14.9781 69.9086 14.4791 70.5083C13.9843 71.108 13.7368 72.0305 13.7368 73.276C13.7368 74.1734 13.8731 74.9345 14.1457 75.5593C14.4183 76.1799 14.7642 76.6286 15.1836 76.9054C15.6071 77.178 16.1565 77.3143 16.8316 77.3143Z" fill="white"/>
<path d="M26.4757 77.8741V77.3457C26.9076 77.3457 27.2075 77.308 27.3752 77.2325C27.4758 77.1864 27.5408 77.0899 27.5702 76.9432C27.5786 76.9012 27.5975 76.4924 27.6268 75.7166L27.6331 75.2574C27.6331 74.6913 27.6058 74.3369 27.5513 74.1944C27.4591 73.9595 27.1362 73.4039 26.5826 72.5275C26.0291 71.6468 25.6056 71.0199 25.312 70.6467C25.0185 70.2693 24.7711 70.0219 24.5698 69.9045C24.4985 69.8625 24.4062 69.8416 24.293 69.8416L23.9911 69.8541V69.3572C24.6872 69.2356 25.3749 69.0888 26.0543 68.9169C26.2765 69.0217 26.461 69.1454 26.6078 69.288C26.8217 69.5019 27.1173 69.9212 27.4947 70.5461C27.8763 71.1667 28.3586 72.0641 28.9415 73.2382L29.4573 72.3576C29.9269 71.5609 30.5455 70.4559 31.3129 69.0427H32.3382V69.3572C32.1159 69.6214 31.7028 70.2253 31.099 71.1688C30.1513 72.6533 29.6229 73.5234 29.5139 73.7792C29.4468 73.9427 29.4132 74.2677 29.4132 74.7542C29.4132 75.7396 29.4342 76.4337 29.4761 76.8362C29.4971 77.0501 29.5516 77.1843 29.6397 77.2388C29.7319 77.2933 30.0611 77.329 30.6272 77.3457V77.8741C30.015 77.8447 29.3923 77.8301 28.759 77.8301C28.0629 77.8301 27.3018 77.8447 26.4757 77.8741Z" fill="white"/>
<path d="M34.8869 77.3017C35.2811 77.2807 35.5243 77.2409 35.6166 77.1822C35.6795 77.1402 35.778 76.9809 35.9122 76.7041C36.168 76.159 36.4951 75.4021 36.8935 74.4334L39.1202 68.9798H40.0449L42.888 75.7354C43.2571 76.6119 43.4835 77.092 43.5674 77.1759C43.6554 77.2598 43.9217 77.3164 44.3662 77.3457V77.8741C43.6827 77.8447 43.0369 77.8301 42.4289 77.8301C41.7034 77.8301 41.0136 77.8447 40.3594 77.8741V77.3457C40.8584 77.3248 41.1457 77.2975 41.2211 77.264C41.3008 77.2262 41.3407 77.1612 41.3407 77.069C41.3407 76.9893 41.2526 76.7167 41.0765 76.2512L40.6613 75.1756C40.1413 75.1672 39.5605 75.163 38.9189 75.163C38.3612 75.163 37.8538 75.1672 37.3967 75.1756L37.1199 75.899C37.0445 76.0961 36.9522 76.3896 36.8432 76.7796C36.818 76.8677 36.8054 76.9473 36.8054 77.0186C36.8054 77.1151 36.8453 77.1843 36.9249 77.2262C37.0088 77.264 37.3045 77.3038 37.8119 77.3457V77.8741C37.4009 77.8447 36.8893 77.8301 36.2771 77.8301C35.6942 77.8301 35.2308 77.8447 34.8869 77.8741V77.3017ZM39.0133 71.2065L37.6861 74.4334C38.0719 74.4543 38.4975 74.4648 38.963 74.4648C39.4494 74.4648 39.9149 74.4543 40.3594 74.4334L39.0133 71.2065Z" fill="white"/>
<path d="M47.305 77.8741V77.547C47.5356 77.438 47.7537 77.3101 47.9592 77.1633C48.0137 76.0269 48.0409 74.8422 48.0409 73.6094C48.0409 72.6407 48.0305 71.7265 48.0095 70.8668C47.9969 70.2546 47.9676 69.9024 47.9214 69.8101C47.9005 69.7556 47.8564 69.7157 47.7893 69.6906C47.7264 69.6612 47.4224 69.6235 46.8773 69.5774V69.049C47.6866 69.07 48.4372 69.0804 49.1291 69.0804C49.8001 69.0804 50.4354 69.07 51.0351 69.049V69.5774C50.4564 69.6151 50.123 69.6654 50.0349 69.7283C49.9804 69.7661 49.9406 69.8436 49.9154 69.9611C49.8945 70.0743 49.8777 70.7515 49.8651 71.9928L49.8274 75.0561C49.8274 75.6306 49.842 76.2953 49.8714 77.0501C50.4207 77.0794 50.8275 77.0941 51.0917 77.0941C51.8842 77.0941 52.551 77.0333 53.092 76.9117C53.201 76.5301 53.3079 76.0751 53.4128 75.5467H53.9663C53.874 76.1464 53.7923 76.8907 53.721 77.7797C53.3226 77.8385 52.9557 77.8678 52.6202 77.8678L50.3432 77.8427L49.3241 77.8301C48.8545 77.8259 48.1814 77.8406 47.305 77.8741Z" fill="white"/>
<defs>
<linearGradient id="paint0_linear_1161_10005" x1="27.1222" y1="4.91042e-08" x2="27.1222" y2="42.6416" gradientUnits="userSpaceOnUse">
<stop stop-color="#C28935"/>
<stop offset="0.196911" stop-color="#FFE7AC"/>
<stop offset="0.463542" stop-color="#F6F5E8"/>
<stop offset="0.583333" stop-color="#A8692D"/>
<stop offset="1" stop-color="#F4D88D"/>
</linearGradient>
<linearGradient id="paint1_linear_1161_10005" x1="27.1222" y1="4.91042e-08" x2="27.1222" y2="42.6416" gradientUnits="userSpaceOnUse">
<stop stop-color="#C28935"/>
<stop offset="0.196911" stop-color="#FFE7AC"/>
<stop offset="0.463542" stop-color="#F6F5E8"/>
<stop offset="0.583333" stop-color="#A8692D"/>
<stop offset="1" stop-color="#F4D88D"/>
</linearGradient>
<linearGradient id="paint2_linear_1161_10005" x1="27.1222" y1="4.91042e-08" x2="27.1222" y2="42.6416" gradientUnits="userSpaceOnUse">
<stop stop-color="#C28935"/>
<stop offset="0.196911" stop-color="#FFE7AC"/>
<stop offset="0.463542" stop-color="#F6F5E8"/>
<stop offset="0.583333" stop-color="#A8692D"/>
<stop offset="1" stop-color="#F4D88D"/>
</linearGradient>
</defs>
</svg>
