<svg width="40" height="40" viewBox="0 0 40 40" fill="none" xmlns="http://www.w3.org/2000/svg">
<path d="M6.8 22.1874C8.95937 23.3187 13.1188 24.8093 20.05 24.8093C26.9813 24.8093 31.0906 23.3218 33.2188 22.1906L33.8438 24.6468C32.7875 25.4156 28.75 27.8687 20.05 27.8687C11.35 27.8687 7.2375 25.4124 6.175 24.6562L6.8 22.1874ZM9.6875 10.8874C9.83598 10.31 10.1067 9.77123 10.4813 9.30744C10.8559 8.84365 11.3257 8.46568 11.8589 8.19905C12.3922 7.93243 12.9764 7.78338 13.5722 7.76197C14.168 7.74055 14.7615 7.84728 15.3125 8.07493L19.8219 9.94993C19.975 10.0133 20.1469 10.0133 20.3 9.94993L24.7937 8.07493C25.347 7.84711 25.9429 7.74124 26.5408 7.76454C27.1386 7.78784 27.7245 7.93976 28.2583 8.20995C28.7922 8.48014 29.2615 8.86225 29.6343 9.33023C30.0072 9.79821 30.2747 10.3411 30.4187 10.9218L32.9187 20.9531C31.0156 22.0249 27.0594 23.5749 20.0594 23.5749C13.0594 23.5749 9.0625 22.0281 7.11563 20.9374L9.6875 10.8874ZM20 32.1874C8.95 32.1874 1.25 29.1156 1.25 26.3593C1.25 25.1343 2.76562 23.8406 5.35625 22.8124L4.8625 24.7562C4.83278 24.8672 4.83426 24.9843 4.86679 25.0946C4.89932 25.2049 4.96163 25.304 5.04688 25.3812C5.21562 25.5343 9.275 29.1312 20.0469 29.1312C30.8188 29.1312 34.7906 25.5218 34.9562 25.3812C35.0371 25.3051 35.0963 25.2088 35.1276 25.1022C35.1589 24.9957 35.1612 24.8827 35.1344 24.7749L34.6562 22.8124C37.2406 23.8499 38.75 25.1437 38.75 26.3656C38.75 29.1156 31.05 32.1874 20 32.1874Z" fill="url(#paint0_linear_1161_16520)"/>
<defs>
<linearGradient id="paint0_linear_1161_16520" x1="20" y1="7.75928" x2="20" y2="32.1874" gradientUnits="userSpaceOnUse">
<stop stop-color="#C28935"/>
<stop offset="0.196911" stop-color="#FFE7AC"/>
<stop offset="0.463542" stop-color="#F6F5E8"/>
<stop offset="0.583333" stop-color="#A8692D"/>
<stop offset="1" stop-color="#F4D88D"/>
</linearGradient>
</defs>
</svg>
