<svg width="30" height="24" viewBox="0 0 30 24" fill="none" xmlns="http://www.w3.org/2000/svg">
<path d="M18.75 13.3755C18.75 15.6648 16.8656 17.5294 14.5313 17.5294C12.2063 17.5294 10.3125 15.6648 10.3125 13.3755C10.3125 11.0863 12.2063 9.22168 14.5313 9.22168C16.8656 9.22168 18.75 11.0863 18.75 13.3755Z" fill="url(#paint0_linear_1161_16529)"/>
<path d="M26.7188 2.76923H21.1688L20.55 0.941538C20.3625 0.378462 19.8281 0 19.2188 0H9.84375C9.23438 0 8.7 0.378462 8.5125 0.941538L7.89375 2.76923H3.28125C1.47188 2.76923 0 4.21846 0 6V20.7692C0 22.5508 1.47188 24 3.28125 24H26.7188C28.5281 24 30 22.5508 30 20.7692V6C30 4.21846 28.5281 2.76923 26.7188 2.76923ZM14.5312 20.2985C10.6594 20.2985 7.5 17.1969 7.5 13.3754C7.5 9.56308 10.6594 6.45231 14.5312 6.45231C18.4125 6.45231 21.5625 9.56308 21.5625 13.3754C21.5625 17.1969 18.4125 20.2985 14.5312 20.2985ZM25.8469 8.81538C25.2684 9.36462 24.4097 9.34708 23.85 8.81538C23.3025 8.256 23.325 7.39477 23.85 6.85846C24.375 6.34154 25.3219 6.34154 25.8469 6.85846C26.3859 7.38923 26.4066 8.26431 25.8469 8.81538Z" fill="url(#paint1_linear_1161_16529)"/>
<defs>
<linearGradient id="paint0_linear_1161_16529" x1="14.5313" y1="9.22168" x2="14.5313" y2="17.5294" gradientUnits="userSpaceOnUse">
<stop stop-color="#C28935"/>
<stop offset="0.196911" stop-color="#FFE7AC"/>
<stop offset="0.463542" stop-color="#F6F5E8"/>
<stop offset="0.583333" stop-color="#A8692D"/>
<stop offset="1" stop-color="#F4D88D"/>
</linearGradient>
<linearGradient id="paint1_linear_1161_16529" x1="15" y1="2.76373e-08" x2="15" y2="24" gradientUnits="userSpaceOnUse">
<stop stop-color="#C28935"/>
<stop offset="0.196911" stop-color="#FFE7AC"/>
<stop offset="0.463542" stop-color="#F6F5E8"/>
<stop offset="0.583333" stop-color="#A8692D"/>
<stop offset="1" stop-color="#F4D88D"/>
</linearGradient>
</defs>
</svg>
