<svg width="35" height="38" viewBox="0 0 35 38" fill="none" xmlns="http://www.w3.org/2000/svg">
<path d="M30.3795 16.3745C30.3718 16.3678 30.3639 16.3615 30.3562 16.355C30.3008 16.3128 30.2455 16.2718 30.1841 16.2381L30.1806 16.2363C30.1804 16.2363 30.1809 16.2363 30.1806 16.2363L30.1335 16.2108L30.1134 16.1996C29.0718 15.6325 28.2742 16.5568 27.5375 17.135C27.0737 17.4358 26.6521 17.6722 26.0963 17.4667C25.4927 17.2433 24.9642 16.7669 24.5171 16.3228L24.4301 16.2365C23.5302 15.3403 22.5661 14.4195 21.3439 13.9837C20.0087 13.5078 18.5388 13.7562 17.4722 14.6921C16.4054 13.7562 14.9358 13.5078 13.6001 13.9837C12.3778 14.4195 11.4138 15.3405 10.5139 16.2365L10.4271 16.3228C9.98051 16.7665 9.45063 17.2436 8.84744 17.4667C8.29235 17.6722 7.86984 17.4354 7.40671 17.135C6.66767 16.5547 5.87168 15.6337 4.82778 16.201L4.77455 16.2305C4.77339 16.2309 4.77222 16.2316 4.77105 16.2321L4.76078 16.2379C4.69635 16.2738 4.61069 16.333 4.54859 16.3875C3.78271 17.0146 3.82052 18.143 3.98953 19.0213C4.18818 20.0534 4.68188 21.0317 5.34342 21.8491V36.9183C5.34342 38.3586 7.59696 38.3625 7.59696 36.9183V23.7366C10.6771 25.5115 14.8517 25.323 17.472 22.8109C20.0498 25.2824 24.1381 25.5069 27.2018 23.8184C28.6806 23.0036 29.8839 21.7818 30.5758 20.242C31.0688 19.145 31.4794 17.2512 30.3795 16.3745C31.3436 17.1427 30.3718 16.3678 30.3795 16.3745Z" fill="url(#paint0_linear_1161_16527)"/>
<path d="M33.9113 5.42815H32.0219C31.5264 3.03273 29.7049 1.03555 27.3568 0.304725C24.9744 -0.437 22.3157 0.201746 20.5313 1.93313C19.5502 2.88453 18.8672 4.12491 18.5976 5.46131C17.8819 5.3254 17.1176 5.3254 16.4022 5.46131C15.9295 3.11692 14.186 1.14247 11.9119 0.364332C9.55987 -0.440711 6.8913 0.117322 5.0605 1.78725C4.03808 2.71939 3.31118 3.95606 3.00562 5.30174H1.08869C-0.360678 5.30174 -0.365113 7.54037 1.08869 7.54037H2.87863C3.15758 10.0905 4.92862 12.3219 7.35326 13.1979C9.83765 14.0951 12.6871 13.4526 14.5466 11.5899C15.577 10.5578 16.2598 9.20519 16.4664 7.76535C17.0408 7.50628 17.9589 7.50628 18.5334 7.76535C18.8964 10.2932 20.7283 12.4611 23.167 13.2629C25.6486 14.0786 28.4458 13.3802 30.2535 11.5083C31.263 10.463 31.9218 9.10453 32.1064 7.66677H33.9113C35.3609 7.66677 35.3649 5.42815 33.9113 5.42815ZM9.68662 11.3661C7.76153 11.3661 5.99539 10.1232 5.35299 8.3199C4.71923 6.54097 5.28577 4.50992 6.7391 3.29946C8.23306 2.05583 10.4201 1.89162 12.0826 2.9047C13.6946 3.88718 14.5543 5.80226 14.2023 7.65031C13.7973 9.77737 11.8645 11.3661 9.68662 11.3661ZM25.3131 11.3661C23.3876 11.3661 21.6217 10.1232 20.9793 8.3199C20.3455 6.54097 20.9118 4.50992 22.3654 3.29946C23.8593 2.05583 26.0461 1.89162 27.7086 2.9047C29.3211 3.88718 30.1804 5.80226 29.8288 7.65031C29.4238 9.77737 27.4908 11.3661 25.3131 11.3661Z" fill="url(#paint1_linear_1161_16527)"/>
<defs>
<linearGradient id="paint0_linear_1161_16527" x1="17.5" y1="4.37591e-08" x2="17.5" y2="38" gradientUnits="userSpaceOnUse">
<stop stop-color="#C28935"/>
<stop offset="0.196911" stop-color="#FFE7AC"/>
<stop offset="0.463542" stop-color="#F6F5E8"/>
<stop offset="0.583333" stop-color="#A8692D"/>
<stop offset="1" stop-color="#F4D88D"/>
</linearGradient>
<linearGradient id="paint1_linear_1161_16527" x1="17.5" y1="4.37591e-08" x2="17.5" y2="38" gradientUnits="userSpaceOnUse">
<stop stop-color="#C28935"/>
<stop offset="0.196911" stop-color="#FFE7AC"/>
<stop offset="0.463542" stop-color="#F6F5E8"/>
<stop offset="0.583333" stop-color="#A8692D"/>
<stop offset="1" stop-color="#F4D88D"/>
</linearGradient>
</defs>
</svg>
