<svg width="32" height="32" viewBox="0 0 32 32" fill="none" xmlns="http://www.w3.org/2000/svg">
<path d="M24.8751 5.115C22.353 3.09707 19.2188 1.99841 15.9888 2C12.1813 2 8.62507 3.46688 5.96632 6.13063C3.39694 8.70813 1.98882 12.1113 2.00007 15.7106C2.00015 18.3496 2.77489 20.9304 4.22819 23.1331L4.24007 23.15C4.25757 23.1756 4.27569 23.2013 4.29382 23.2263C4.31194 23.2513 4.33444 23.2838 4.33944 23.2919L4.35319 23.3169C4.42382 23.4419 4.47819 23.5944 4.43007 23.7481L3.27882 27.9144C3.23276 28.0693 3.20754 28.2297 3.20382 28.3913C3.20298 28.8163 3.37075 29.2244 3.67034 29.526C3.96992 29.8275 4.37686 29.998 4.80194 30C5.02656 29.9926 5.24793 29.9441 5.45507 29.8569L9.67319 28.3344L9.72632 28.3138C9.84106 28.2656 9.96437 28.2411 10.0888 28.2419C10.2036 28.2422 10.3173 28.2633 10.4244 28.3044C10.5257 28.3438 11.4451 28.6956 12.4151 28.9669C13.2213 29.1919 14.8988 29.5294 16.2132 29.5294C19.9413 29.5294 23.4226 28.0856 26.0151 25.4631C28.5851 22.8606 30.0001 19.4013 30.0001 15.7181C30.0004 14.7727 29.9003 13.8299 29.7013 12.9056C29.0551 9.86688 27.3413 7.09938 24.8751 5.115ZM10.0001 18C9.6045 18 9.21782 17.8827 8.88893 17.6629C8.56003 17.4432 8.30368 17.1308 8.15231 16.7654C8.00093 16.3999 7.96133 15.9978 8.0385 15.6098C8.11567 15.2219 8.30615 14.8655 8.58585 14.5858C8.86556 14.3061 9.22192 14.1156 9.60989 14.0384C9.99785 13.9613 10.4 14.0009 10.7654 14.1522C11.1309 14.3036 11.4432 14.56 11.663 14.8889C11.8828 15.2178 12.0001 15.6044 12.0001 16C12.0001 16.5304 11.7894 17.0391 11.4143 17.4142C11.0392 17.7893 10.5305 18 10.0001 18ZM16.0001 18C15.6045 18 15.2178 17.8827 14.8889 17.6629C14.56 17.4432 14.3037 17.1308 14.1523 16.7654C14.0009 16.3999 13.9613 15.9978 14.0385 15.6098C14.1157 15.2219 14.3061 14.8655 14.5859 14.5858C14.8656 14.3061 15.2219 14.1156 15.6099 14.0384C15.9978 13.9613 16.4 14.0009 16.7654 14.1522C17.1309 14.3036 17.4432 14.56 17.663 14.8889C17.8828 15.2178 18.0001 15.6044 18.0001 16C18.0001 16.5304 17.7894 17.0391 17.4143 17.4142C17.0392 17.7893 16.5305 18 16.0001 18ZM22.0001 18C21.6045 18 21.2178 17.8827 20.8889 17.6629C20.56 17.4432 20.3037 17.1308 20.1523 16.7654C20.0009 16.3999 19.9613 15.9978 20.0385 15.6098C20.1157 15.2219 20.3061 14.8655 20.5859 14.5858C20.8656 14.3061 21.2219 14.1156 21.6099 14.0384C21.9978 13.9613 22.4 14.0009 22.7654 14.1522C23.1309 14.3036 23.4432 14.56 23.663 14.8889C23.8828 15.2178 24.0001 15.6044 24.0001 16C24.0001 16.5304 23.7894 17.0391 23.4143 17.4142C23.0392 17.7893 22.5305 18 22.0001 18Z" fill="url(#paint0_linear_1161_16533)"/>
<defs>
<linearGradient id="paint0_linear_1161_16533" x1="16" y1="2" x2="16" y2="30" gradientUnits="userSpaceOnUse">
<stop stop-color="#C28935"/>
<stop offset="0.196911" stop-color="#FFE7AC"/>
<stop offset="0.463542" stop-color="#F6F5E8"/>
<stop offset="0.583333" stop-color="#A8692D"/>
<stop offset="1" stop-color="#F4D88D"/>
</linearGradient>
</defs>
</svg>
